{
  "asset": {
    "version": "2.0",
    "generator": "zyren authored fixture"
  },
  "extensionsUsed": [
    "KHR_materials_unlit"
  ],
  "extensionsRequired": [
    "KHR_materials_unlit"
  ],
  "buffers": [
    {
      "byteLength": 840,
      "uri": "assembly.bin"
    }
  ],
  "bufferViews": [
    {
      "buffer": 0,
      "byteOffset": 0,
      "byteLength": 288
    },
    {
      "buffer": 0,
      "byteOffset": 288,
      "byteLength": 288
    },
    {
      "buffer": 0,
      "byteOffset": 576,
      "byteLength": 192
    },
    {
      "buffer": 0,
      "byteOffset": 768,
      "byteLength": 72,
      "target": 34963
    }
  ],
  "accessors": [
    {
      "bufferView": 0,
      "componentType": 5126,
      "count": 24,
      "type": "VEC3",
      "min": [
        -0.5,
        -0.5,
        -0.5
      ],
      "max": [
        0.5,
        0.5,
        0.5
      ]
    },
    {
      "bufferView": 1,
      "componentType": 5126,
      "count": 24,
      "type": "VEC3"
    },
    {
      "bufferView": 2,
      "componentType": 5126,
      "count": 24,
      "type": "VEC2"
    },
    {
      "bufferView": 3,
      "componentType": 5123,
      "count": 36,
      "type": "SCALAR"
    }
  ],
  "materials": [
    {
      "name": "Corner colors",
      "extensions": {
        "KHR_materials_unlit": {}
      },
      "pbrMetallicRoughness": {
        "baseColorTexture": {
          "index": 0
        }
      }
    }
  ],
  "images": [
    {
      "uri": "corners.png"
    }
  ],
  "textures": [
    {
      "source": 0,
      "sampler": 0
    }
  ],
  "samplers": [
    {
      "minFilter": 9987,
      "magFilter": 9728,
      "wrapS": 33071,
      "wrapT": 33071
    }
  ],
  "meshes": [
    {
      "name": "Textured box",
      "primitives": [
        {
          "attributes": {
            "POSITION": 0,
            "NORMAL": 1,
            "TEXCOORD_0": 2
          },
          "indices": 3,
          "material": 0
        }
      ]
    }
  ],
  "nodes": [
    {
      "name": "Assembly",
      "children": [
        1,
        2,
        3
      ]
    },
    {
      "name": "Base",
      "mesh": 0,
      "translation": [
        0,
        -0.7,
        0
      ],
      "scale": [
        2.4,
        0.25,
        1.4
      ]
    },
    {
      "name": "Housing",
      "mesh": 0,
      "translation": [
        -0.45,
        0,
        0
      ],
      "scale": [
        1.2,
        1.2,
        1.2
      ]
    },
    {
      "name": "Motor",
      "mesh": 0,
      "translation": [
        0.8,
        -0.1,
        0
      ],
      "scale": [
        0.8,
        0.8,
        0.8
      ]
    },
    {
      "name": "Single box",
      "mesh": 0
    }
  ],
  "scenes": [
    {
      "name": "Assembly",
      "nodes": [
        0
      ]
    },
    {
      "name": "Single box",
      "nodes": [
        4
      ]
    }
  ],
  "scene": 0
}
